<?xml version="1.0" encoding="utf-8"?>
<!-- Generator: Adobe Illustrator 17.1.0, SVG Export Plug-In . SVG Version: 6.00 Build 0)  -->
<!DOCTYPE svg PUBLIC "-//W3C//DTD SVG 1.1//EN" "http://www.w3.org/Graphics/SVG/1.1/DTD/svg11.dtd">
<svg version="1.1" id="Layer_1" xmlns="http://www.w3.org/2000/svg" xmlns:xlink="http://www.w3.org/1999/xlink" x="0px" y="0px"
	 viewBox="0 0 151.701 125.85" enable-background="new 0 0 151.701 125.85" xml:space="preserve">
<g>
	<path fill="#F7941E" d="M151.701,60.544C151.701,27.107,117.741,0,75.85,0S0,27.107,0,60.544s33.959,60.544,75.85,60.544
		c21.866,0,41.558-7.395,55.4-19.212c1.582,2.702,4.46,9.591,4.46,23.974c0,0,11.955-24.266,15.165-56.369l-0.005,0.006
		C151.412,66.569,151.701,63.583,151.701,60.544z M76.418,17.398c5.547,0,9.784,3.631,9.784,9.38c0,5.446-5.245,8.775-10.389,8.775
		c-5.346,0-10.086-3.329-10.086-9.078C65.727,20.625,71.072,17.398,76.418,17.398z M91.244,91.328H61.39v-2.521
		c3.731-0.202,5.446-2.824,5.446-8.17V52.799c0-5.245-1.715-7.867-5.446-8.069v-2.521l24.207-1.412v39.84
		c0,5.346,1.916,7.968,5.648,8.17V91.328z"/>
</g>
</svg>
